<svg id="Stethoscope" xmlns="http://www.w3.org/2000/svg" width="24" height="24" viewBox="0 0 24 24">
  <path id="Path_606" data-name="Path 606" d="M0,0H24V24H0Z" fill="none"/>
  <path id="Path_607" data-name="Path 607" d="M21.268,11.732a2.5,2.5,0,1,1-3.536,0,2.5,2.5,0,0,1,3.536,0" fill="none" stroke="#fff" stroke-linecap="round" stroke-linejoin="round" stroke-width="1.5"/>
  <path id="Path_608" data-name="Path 608" d="M6,3H4A2,2,0,0,0,2,5V9A6,6,0,0,0,14,9V5a2,2,0,0,0-2-2H10" fill="none" stroke="#fff" stroke-linecap="round" stroke-linejoin="round" stroke-width="1.5"/>
  <path id="Path_609" data-name="Path 609" d="M19.5,16v.25a5.75,5.75,0,0,1-11.5,0V15" fill="none" stroke="#fff" stroke-linecap="round" stroke-linejoin="round" stroke-width="1.5"/>
  <path id="Path_610" data-name="Path 610" d="M6,2V4" fill="none" stroke="#fff" stroke-linecap="round" stroke-linejoin="round" stroke-width="1.5"/>
  <path id="Path_611" data-name="Path 611" d="M10,2V4" fill="none" stroke="#fff" stroke-linecap="round" stroke-linejoin="round" stroke-width="1.5"/>
</svg>
