<svg id="eye-hidden" xmlns="http://www.w3.org/2000/svg" width="24" height="24" viewBox="0 0 24 24">
  <path id="Path_2893" data-name="Path 2893" d="M0,0H24V24H0Z" fill="none"/>
  <path id="Path_2894" data-name="Path 2894" d="M12,19a6.943,6.943,0,0,1-2.5-.5" fill="none" stroke="#134576" stroke-linecap="round" stroke-linejoin="round" stroke-width="1.5"/>
  <path id="Path_2895" data-name="Path 2895" d="M20.882,12.468C18.99,15.967,15.495,19,12,19" fill="none" stroke="#134576" stroke-linecap="round" stroke-linejoin="round" stroke-width="1.5"/>
  <path id="Path_2896" data-name="Path 2896" d="M19.079,8.921a15.135,15.135,0,0,1,1.8,2.612.987.987,0,0,1,0,.935" fill="none" stroke="#134576" stroke-linecap="round" stroke-linejoin="round" stroke-width="1.5"/>
  <path id="Path_2897" data-name="Path 2897" d="M5,19,19,5" fill="none" stroke="#134576" stroke-linecap="round" stroke-linejoin="round" stroke-width="1.5"/>
  <path id="Path_2898" data-name="Path 2898" d="M9.773,14.227a3.15,3.15,0,1,1,4.455-4.455" fill="none" stroke="#134576" stroke-linecap="round" stroke-linejoin="round" stroke-width="1.5"/>
  <path id="Path_2899" data-name="Path 2899" d="M17.044,6.956A8.421,8.421,0,0,0,12,5C8.505,5,5.01,8.033,3.118,11.533a.987.987,0,0,0,0,.935,14.744,14.744,0,0,0,3.838,4.577" fill="none" stroke="#134576" stroke-linecap="round" stroke-linejoin="round" stroke-width="1.5"/>
</svg>
