<svg xmlns="http://www.w3.org/2000/svg" xmlns:xlink="http://www.w3.org/1999/xlink" width="592.37" height="437.588" viewBox="0 0 592.37 437.588">
  <defs>
    <linearGradient id="linear-gradient" x1="0.5" y1="1" x2="0.5" gradientUnits="objectBoundingBox">
      <stop offset="0" stop-color="gray" stop-opacity="0.251"/>
      <stop offset="0.54" stop-color="gray" stop-opacity="0.122"/>
      <stop offset="1" stop-color="gray" stop-opacity="0.102"/>
    </linearGradient>
    <linearGradient id="linear-gradient-2" x1="0.5" y1="1" x2="0.5" y2="0" xlink:href="#linear-gradient"/>
  </defs>
  <g id="undraw_doctors_hwty" transform="translate(0.485)">
    <path id="Path_241" data-name="Path 241" d="M91.335,356.76H142.8v70.152H95.1c-.122.725-.243,1.445-.38,2.17H142.8v56.566a.723.723,0,0,1-.238-.091q-2.029-.806-4.057-1.709c-.289-.132-.573-.269-.867-.4q-2.029-.958-4.057-2.029c-.472-.249-.943-.507-1.4-.771A84.4,84.4,0,0,1,111.94,464.9c-.178-.167-.34-.35-.507-.507-.822-.893-1.628-1.8-2.409-2.718-.294-.34-.578-.685-.867-1.014-.923-1.126-1.816-2.292-2.678-3.464-.132-.177-.254-.35-.38-.507a74.911,74.911,0,0,1-8.723-15.772c-.071-.167-.137-.35-.2-.507-.7-1.775-1.334-3.575-1.881-5.411-.233-.766-.462-1.521-.654-2.318-.071-.228-.127-.462-.188-.69-2.85-11.233-3.18-22.907-3.18-34.526V393.41q.061-7.115.167-14.215.041-1.826.076-3.667.106-4.66.3-9.341c.03-.862.071-1.729.117-2.586q.03-.746.076-1.491Q91.147,359.417,91.335,356.76Z" transform="translate(-52.828 -185.249)" fill="#278bed" opacity="0.1"/>
    <path id="Path_242" data-name="Path 242" d="M166.412,168.072H138.18A214.9,214.9,0,0,1,153.2,147.411c4.2-5.152,8.621-10.173,13.216-15.011Z" transform="translate(-76.442 -74.67)" fill="#278bed" opacity="0.1"/>
    <path id="Path_243" data-name="Path 243" d="M143.992,207v73.778H92.69c0-.213.03-.431.051-.644.046-.583.091-1.161.142-1.745.051-.68.117-1.359.183-2.029s.132-1.481.213-2.216.147-1.481.228-2.216.162-1.471.254-2.2.172-1.471.274-2.2c.076-.6.152-1.212.238-1.821.117-.857.238-1.714.365-2.566a2.439,2.439,0,0,1,.061-.385,176.957,176.957,0,0,1,3.773-18.52,137.128,137.128,0,0,1,6.365-18.764A140.913,140.913,0,0,1,114.41,207Z" transform="translate(-54.021 -111.437)" fill="#278bed" opacity="0.1"/>
    <path id="Path_244" data-name="Path 244" d="M218.09,190.074v70.152H328.016V190.074Zm0,72.322v60.247c.629.127,1.248.254,1.871.36.837.162,1.679.309,2.536.436l.507.071c.335.056.674.1,1.014.142.847.122,1.694.213,2.536.294.4.041.806.071,1.207.107l.979.071h0c.532.041,1.06.071,1.587.091.325,0,.649.025.979.035s.507,0,.771,0h2.82c.436,0,.872,0,1.3-.041h.025a7.757,7.757,0,0,0,.908-.036,2.216,2.216,0,0,0,.259,0,6.115,6.115,0,0,0,.751-.03,1.057,1.057,0,0,1,.172,0c.563-.036,1.131-.081,1.7-.132s1.116-.112,1.689-.172l1.151-.142a101,101,0,0,0,13.921-2.962c10.259-2.86,20.285-6.862,30.54-9.788,13.246-3.778,27.892-5.639,40.692-1.04V262.4ZM328.016,111.965V18.572A141.252,141.252,0,0,0,292.3,22.756c-27.837,6.993-52.833,22.162-74.214,41.534v47.67h5.533v2.165H218.09V187.9H328.016V114.126h-81.76v-2.171ZM469.242,80.416a45.507,45.507,0,0,1-19.93-5.791c-11.837-6.436-21.3-16.385-31.868-24.773A146.322,146.322,0,0,0,340.314,19.2v92.765H497.226l.391-.411Zm14.3-2.536L498.7,94.52V73.5c-5.1.644-9.544,2.14-15.158,4.356ZM498.7,337.6V262.4H466.372c-.081-.319-.172-.644-.274-.969.1.325.182.649.269.969H340.314v54.385c1.2.887,2.378,1.826,3.55,2.769h0q1.9,1.552,3.768,3.139l1.258,1.04c.6.507,1.217,1.014,1.826,1.5q1.831,1.476,3.687,2.921.928.73,1.866,1.435a254.621,254.621,0,0,0,31.26,20.442c2.444,1.364,4.914,2.678,7.4,3.961q2.48,1.278,5,2.505,3.773,1.841,7.607,3.55h0A279.224,279.224,0,0,0,481.571,381.6q8.51,1.253,17.1,1.978V337.594h.507ZM340.314,114.126V187.9H498.7V114.126Zm0,75.938v70.162H498.7V190.074ZM510.989,73.4v23.48l19.342-21.234Q520.716,74.062,510.989,73.4Zm0,116.671v70.152H665.031V190.074Zm153.5,153.093.543-80.771H510.989v122a277.565,277.565,0,0,0,29.769-.36h.172q7.1-.456,14.134-1.3h.107a259.9,259.9,0,0,0,72.637-19.4M694.749,201.6q-.877-2.029-1.8-4.057c-1.146-2.536-2.353-5-3.6-7.46H677.329v70.147h30.382c-.025-19.869-5.056-40.155-12.962-58.63Zm-17.42,60.8v69.477a99.419,99.419,0,0,0,21-28.318,97.468,97.468,0,0,0,9.367-41.164Zm0-92.765v18.257h10.893a198.35,198.35,0,0,0-10.893-18.257ZM572.86,87.172c-.8-.309-1.608-.619-2.414-.913a219.157,219.157,0,0,0-26.016-7.82l-29.606,32.487h0l-.578.624.38.411H620A225.118,225.118,0,0,0,572.86,87.172Zm50.231,26.954H513.15l-2.16,1.973v71.8H665.031V153.114A219.334,219.334,0,0,0,623.091,114.126Z" transform="translate(-115.827 -18.563)" fill="#278bed" opacity="0.1"/>
    <path id="Path_245" data-name="Path 245" d="M143.992,280.39v36.559H92.69c0-.213.03-.431.051-.644.046-.583.091-1.161.142-1.745.051-.68.117-1.359.183-2.029s.132-1.481.213-2.216.147-1.481.228-2.216.162-1.471.254-2.2.172-1.471.274-2.2c.076-.6.152-1.212.238-1.821.117-.857.238-1.714.365-2.566a2.439,2.439,0,0,1,.061-.385,176.954,176.954,0,0,1,3.773-18.52Z" transform="translate(-54.021 -147.609)" fill="#278bed" opacity="0.1"/>
    <path id="Path_246" data-name="Path 246" d="M91.335,356.76H142.8v70.152H95.1c-.122.725-.243,1.445-.38,2.17H142.8v56.566a.723.723,0,0,1-.238-.091q-2.029-.806-4.057-1.709c-.289-.132-.573-.269-.867-.4q-2.029-.958-4.057-2.029c-.472-.249-.943-.507-1.4-.771A84.4,84.4,0,0,1,111.94,464.9c-.178-.167-.34-.35-.507-.507-.822-.893-1.628-1.8-2.409-2.718-.294-.34-.578-.685-.867-1.014-.923-1.126-1.816-2.292-2.678-3.464-.132-.177-.254-.35-.38-.507a74.911,74.911,0,0,1-8.723-15.772c-.071-.167-.137-.35-.2-.507-.7-1.775-1.334-3.575-1.881-5.411-.233-.766-.462-1.521-.654-2.318-.071-.228-.127-.462-.188-.69-2.85-11.233-3.18-22.907-3.18-34.526V393.41q.061-7.115.167-14.215.041-1.826.076-3.667.106-4.66.3-9.341c.03-.862.071-1.729.117-2.586q.03-.746.076-1.491Q91.147,359.417,91.335,356.76Z" transform="translate(-52.828 -185.249)" fill="#278bed" opacity="0.1"/>
    <path id="Path_247" data-name="Path 247" d="M240.829,188.481V251.69h-38.7V188.481h5.518v-21.4H230.3v21.4Z" transform="translate(-99.872 -82.35)" fill="#278bed" opacity="0.1"/>
    <rect id="Rectangle_152" data-name="Rectangle 152" width="38.694" height="70.152" transform="translate(102.258 171.506)" fill="#278bed" opacity="0.1"/>
    <path id="Path_248" data-name="Path 248" d="M218.09,499.37h38.694v58.32a100.217,100.217,0,0,1-13.921,2.957c-.385.056-.766.1-1.151.142-.568.066-1.131.127-1.694.178l-1.7.137h-.172l-.751.041h-.259c-.3,0-.6.036-.908.041H236.2c-.436,0-.867.03-1.3.041h-3.591a7.965,7.965,0,0,1-.984-.041q-.781-.03-1.582-.091h0l-.979-.071c-.406-.031-.811-.071-1.212-.112q-1.278-.112-2.536-.289L223,560.479l-.507-.071c-.847-.127-1.689-.269-2.536-.431-.629-.112-1.248-.238-1.871-.37Z" transform="translate(-115.827 -255.537)" fill="#278bed" opacity="0.1"/>
    <rect id="Rectangle_153" data-name="Rectangle 153" width="31.909" height="70.669" transform="translate(350.956 98.666)" fill="#278bed" opacity="0.1"/>
    <path id="Path_249" data-name="Path 249" d="M601.532,338.19v70.157H443.15V378.086h84.362v17.851h42.107V338.19Z" transform="translate(-218.663 -166.684)" fill="#278bed" opacity="0.1"/>
    <path id="Path_250" data-name="Path 250" d="M617.985,573.651a2.868,2.868,0,0,1-.507-.03v46.022q-8.576-.7-17.09-1.973a279.6,279.6,0,0,1-74.072-21.553q-10.208-4.6-20-10.036a255.558,255.558,0,0,1-31.255-20.442q-3.743-2.86-7.374-5.847c-1.679-1.39-3.342-2.809-5.036-4.184-1.166-.948-2.348-1.887-3.55-2.779v-54.4H585.153c-.091-.325-.172-.644-.264-.969.1.325.188.644.269.969h32.325v75.187C617.65,573.621,617.817,573.636,617.985,573.651Z" transform="translate(-234.613 -254.596)" fill="#278bed" opacity="0.1"/>
    <path id="Path_251" data-name="Path 251" d="M915.3,177.757H894.51V171.3h9.316V152.05q1.212.446,2.414.913V171.3H915.3Z" transform="translate(-449.212 -84.354)" fill="#278bed" opacity="0.1"/>
    <path id="Path_252" data-name="Path 252" d="M916.677,280.778H814.591a.066.066,0,0,0,.031,0H795.65V210.109h5.365v52.235H825.53V231.408h20.26V207h20.792v24.423h20.25v30.935h29.85Z" transform="translate(-400.487 -111.438)" fill="#278bed" opacity="0.1"/>
    <path id="Path_253" data-name="Path 253" d="M795.65,356.76v70.152H916.682V356.76ZM949.519,509.483l.172-55.531H916.682V429.1H795.65V551.083a277.564,277.564,0,0,0,29.769-.36h.172q7.1-.456,14.134-1.3h.107a259.9,259.9,0,0,0,72.637-19.4" transform="translate(-400.487 -185.249)" fill="#278bed" opacity="0.1"/>
    <path id="Path_254" data-name="Path 254" d="M1125.78,499.37h28.232a97.523,97.523,0,0,1-9.367,41.159,99.377,99.377,0,0,1-21,28.323V524.224h2.13Z" transform="translate(-562.148 -255.537)" fill="#278bed" opacity="0.1"/>
    <path id="Path_255" data-name="Path 255" d="M1156.1,438.11H1127.85V379.48h15.29C1151.046,397.955,1156.077,418.24,1156.1,438.11Z" transform="translate(-564.218 -196.447)" fill="#278bed" opacity="0.1"/>
    <rect id="Rectangle_154" data-name="Rectangle 154" width="17.095" height="22.157" transform="translate(365.774 118.312)" fill="#278bed" opacity="0.1"/>
    <rect id="Rectangle_155" data-name="Rectangle 155" width="17.095" height="5.102" transform="translate(365.774 164.238)" fill="#278bed" opacity="0.1"/>
    <rect id="Rectangle_156" data-name="Rectangle 156" width="17.095" height="14.884" transform="translate(365.774 171.506)" fill="#278bed" opacity="0.1"/>
    <rect id="Rectangle_157" data-name="Rectangle 157" width="17.095" height="22.157" transform="translate(365.774 210.164)" fill="#278bed" opacity="0.1"/>
    <rect id="Rectangle_158" data-name="Rectangle 158" width="17.095" height="22.157" transform="translate(365.774 256.09)" fill="#278bed" opacity="0.1"/>
    <path id="Path_256" data-name="Path 256" d="M754.8,631.1a2.462,2.462,0,0,1,.507.036,2.869,2.869,0,0,1-.507-.03v5.147H737.7V614.1h17.1Z" transform="translate(-371.926 -312.084)" fill="#278bed" opacity="0.1"/>
    <path id="Path_257" data-name="Path 257" d="M754.8,704.65v17.111q-8.581-.705-17.1-1.973V704.65Z" transform="translate(-371.926 -356.713)" fill="#278bed" opacity="0.1"/>
    <rect id="Rectangle_159" data-name="Rectangle 159" width="73.265" height="1.628" transform="translate(224.487 240.034)" fill="#278bed" opacity="0.1"/>
    <rect id="Rectangle_160" data-name="Rectangle 160" width="73.265" height="6.238" transform="translate(224.487 243.828)" fill="#278bed" opacity="0.1"/>
    <rect id="Rectangle_161" data-name="Rectangle 161" width="73.265" height="10.031" transform="translate(224.487 270.513)" fill="#278bed" opacity="0.1"/>
    <path id="Path_258" data-name="Path 258" d="M535.815,612.08v10.031H478.51q-3.743-2.85-7.374-5.852c-1.684-1.385-3.347-2.8-5.036-4.179Z" transform="translate(-238.063 -311.088)" fill="#278bed" opacity="0.1"/>
    <path id="Path_259" data-name="Path 259" d="M578.251,672.17v10.057H572.2q-10.208-4.6-20-10.036Z" transform="translate(-280.499 -340.705)" fill="#278bed" opacity="0.1"/>
    <rect id="Rectangle_162" data-name="Rectangle 162" width="14.423" height="14.423" transform="translate(424.931 178.306)" fill="#278bed" opacity="0.1"/>
    <rect id="Rectangle_163" data-name="Rectangle 163" width="14.423" height="14.423" transform="translate(112.649 111.106)" fill="#278bed" opacity="0.1"/>
    <rect id="Rectangle_164" data-name="Rectangle 164" width="14.423" height="14.423" transform="translate(112.649 144.607)" fill="#278bed" opacity="0.1"/>
    <rect id="Rectangle_165" data-name="Rectangle 165" width="14.423" height="14.423" transform="translate(112.649 178.108)" fill="#278bed" opacity="0.1"/>
    <rect id="Rectangle_166" data-name="Rectangle 166" width="14.423" height="14.423" transform="translate(112.649 211.605)" fill="#278bed" opacity="0.1"/>
    <rect id="Rectangle_167" data-name="Rectangle 167" width="14.423" height="14.423" transform="translate(112.649 245.106)" fill="#278bed" opacity="0.1"/>
    <rect id="Rectangle_168" data-name="Rectangle 168" width="14.423" height="14.423" transform="translate(112.649 278.607)" fill="#278bed" opacity="0.1"/>
    <rect id="Rectangle_169" data-name="Rectangle 169" width="14.423" height="14.423" transform="translate(479.991 178.306)" fill="#278bed" opacity="0.1"/>
    <rect id="Rectangle_170" data-name="Rectangle 170" width="14.423" height="14.423" transform="translate(424.931 213.882)" fill="#278bed" opacity="0.1"/>
    <rect id="Rectangle_171" data-name="Rectangle 171" width="14.423" height="14.423" transform="translate(479.991 213.882)" fill="#278bed" opacity="0.1"/>
    <rect id="Rectangle_172" data-name="Rectangle 172" width="14.423" height="14.423" transform="translate(424.931 249.452)" fill="#278bed" opacity="0.1"/>
    <rect id="Rectangle_173" data-name="Rectangle 173" width="14.423" height="14.423" transform="translate(479.991 249.452)" fill="#278bed" opacity="0.1"/>
    <rect id="Rectangle_174" data-name="Rectangle 174" width="14.423" height="14.423" transform="translate(424.931 285.027)" fill="#278bed" opacity="0.1"/>
    <rect id="Rectangle_175" data-name="Rectangle 175" width="14.423" height="14.423" transform="translate(479.991 285.027)" fill="#278bed" opacity="0.1"/>
    <rect id="Rectangle_176" data-name="Rectangle 176" width="14.423" height="14.423" transform="translate(424.931 320.603)" fill="#278bed" opacity="0.1"/>
    <rect id="Rectangle_177" data-name="Rectangle 177" width="14.423" height="14.423" transform="translate(479.991 320.603)" fill="#278bed" opacity="0.1"/>
    <path id="Path_260" data-name="Path 260" d="M838.4,711.631v-9.3h14.418v7.977Z" transform="translate(-413.469 -346.157)" fill="#278bed" opacity="0.1"/>
    <path id="Path_261" data-name="Path 261" d="M96.53,316.91v8.251h49.354V316.91Zm4.914,7.734H97.387v-7.211h4.057Zm4.914,0H102.3v-7.211h4.057Zm4.9,0h-4.057v-7.211h4.057Zm4.914,0h-4.057v-7.211h4.057Zm4.909,0h-4.057v-7.211h4.057Zm4.914,0h-4.057v-7.211H126Zm4.914,0h-4.057v-7.211h4.057Zm4.909,0h-4.057v-7.211h4.057Zm4.909,0h-4.057v-7.211h4.057Zm4.914,0h-4.057v-7.211h4.057Z" transform="translate(-55.914 -165.609)" fill="#278bed" opacity="0.1"/>
    <path id="Path_262" data-name="Path 262" d="M96.53,364.27v8.251h49.354V364.27ZM101.444,372H97.387v-7.211h4.057Zm4.914,0H102.3v-7.211h4.057Zm4.9,0h-4.057v-7.211h4.057Zm4.914,0h-4.057v-7.211h4.057Zm4.909,0h-4.057v-7.211h4.057ZM126,372h-4.057v-7.211H126Zm4.914,0h-4.057v-7.211h4.057Zm4.909,0h-4.057v-7.211h4.057Zm4.909,0h-4.057v-7.211h4.057Zm4.914,0h-4.057v-7.211h4.057Z" transform="translate(-55.914 -188.951)" fill="#278bed" opacity="0.1"/>
    <path id="Path_263" data-name="Path 263" d="M96.53,411.64v8.246h49.354V411.64Zm4.914,7.724H97.387v-7.211h4.057Zm4.914,0H102.3v-7.211h4.057Zm4.9,0h-4.057v-7.211h4.057Zm4.914,0h-4.057v-7.211h4.057Zm4.909,0h-4.057v-7.211h4.057Zm4.914,0h-4.057v-7.211H126Zm4.914,0h-4.057v-7.211h4.057Zm4.909,0h-4.057v-7.211h4.057Zm4.909,0h-4.057v-7.211h4.057Zm4.914,0h-4.057v-7.211h4.057Z" transform="translate(-55.914 -212.298)" fill="#278bed" opacity="0.1"/>
    <path id="Path_264" data-name="Path 264" d="M96.53,459v8.246h49.354V459Zm4.914,7.729H97.387v-7.222h4.057Zm4.914,0H102.3v-7.222h4.057Zm4.9,0h-4.057v-7.222h4.057Zm4.914,0h-4.057v-7.222h4.057Zm4.909,0h-4.057v-7.222h4.057Zm4.914,0h-4.057v-7.222H126Zm4.914,0h-4.057v-7.222h4.057Zm4.909,0h-4.057v-7.222h4.057Zm4.909,0h-4.057v-7.222h4.057Zm4.914,0h-4.057v-7.222h4.057Z" transform="translate(-55.914 -235.64)" fill="#278bed" opacity="0.1"/>
    <path id="Path_265" data-name="Path 265" d="M97,506.34c.193.781.421,1.552.654,2.318v-1.8h4.057v7.206H99.536c.061.172.127.35.2.507h46.4V506.34Zm9.636,7.729h-4.057v-7.206h4.057Zm4.9,0h-4.057v-7.206h4.057Zm4.914,0H112.4v-7.206h4.057Zm4.909,0h-4.057v-7.206h4.057Zm4.914,0H122.22v-7.206h4.057Zm4.914,0h-4.057v-7.206h4.057Zm4.909,0h-4.057v-7.206H136.1Zm4.909,0h-4.057v-7.206h4.057Zm4.914,0h-4.057v-7.206h4.057Z" transform="translate(-56.145 -258.973)" fill="#278bed" opacity="0.1"/>
    <path id="Path_266" data-name="Path 266" d="M119.54,553.7c.132.162.254.345.38.507H122.6v3.464l.867,1.014v-4.5h4.057v7.272h-1.668c.162.167.319.345.507.507h30.849V553.7Zm12.912,7.759h-4.057v-7.242h4.057Zm4.914,0h-4.057v-7.242h4.057Zm4.914,0h-4.057v-7.242h4.057Zm4.909,0h-4.057v-7.242h4.057Zm4.909,0h-4.057v-7.242H152.1Zm4.914,0h-4.057v-7.242h4.057Z" transform="translate(-67.255 -282.315)" fill="#278bed" opacity="0.1"/>
    <path id="Path_267" data-name="Path 267" d="M172.93,601.06c.467.264.938.507,1.41.766v-.254H178.4v2.287c.294.127.573.264.862.4v-2.683h4.057v4.392a1.654,1.654,0,0,0,.238.086v-4.99Z" transform="translate(-93.569 -305.657)" fill="#278bed" opacity="0.1"/>
    <path id="Path_268" data-name="Path 268" d="M535.308,278.668Zm-31.239,149.68Zm-32.593-76.156c.1.325.183.649.269.969h0C471.668,352.841,471.577,352.517,471.475,352.192Zm63.833-73.524ZM229,202.73v2.16h22.654V202.72ZM504.074,428.348Zm-32.6-76.156c.1.325.183.649.269.969h0C471.668,352.841,471.577,352.517,471.475,352.192Zm63.833-73.524Zm-31.239,149.68Zm-32.593-76.156c.1.325.183.649.269.969h0C471.668,352.841,471.577,352.517,471.475,352.192Z" transform="translate(-121.204 -109.328)" fill="#278bed" opacity="0.1"/>
    <ellipse id="Ellipse_47" data-name="Ellipse 47" cx="49.415" cy="7.937" rx="49.415" ry="7.937" transform="translate(396.324 421.715)" fill="#278bed" opacity="0.1"/>
    <ellipse id="Ellipse_48" data-name="Ellipse 48" cx="49.415" cy="7.937" rx="49.415" ry="7.937" transform="translate(173.46 413.778)" fill="#278bed" opacity="0.1"/>
    <path id="Path_269" data-name="Path 269" d="M482.464,357.506a.268.268,0,0,0-.076-.132C481.633,356.629,472,343,472,343s-.507-1.521-1.329-3.5a3.478,3.478,0,0,0,.583-1.141,3.92,3.92,0,0,0,.1-.532c0-.056.041-.1.056-.157a3.85,3.85,0,0,0-.051-2.089,3.624,3.624,0,0,1-.208.507,8.477,8.477,0,0,0-.761-1.694c-1.278-2.2-3.1-4.057-4.448-6.2a16.781,16.781,0,0,1-2.287-11.137c0,.2,0,.4,0,.6a17.358,17.358,0,0,1,.3-2.282,15.84,15.84,0,0,1,.847-2.505c1.207-2.764,3.159-5.173,4.346-7.947a15.058,15.058,0,0,0,.9-2.906,16.278,16.278,0,0,0,.451-5.1,8.12,8.12,0,0,1-.127,1.212,16.507,16.507,0,0,0-4.661-10.99c-4.143-4.164-10.092-5.781-15.782-6.633a14.457,14.457,0,0,1-6.643-2.536,11.549,11.549,0,0,0-7.566-1.445,12.48,12.48,0,0,0-7.7,3.809c-2.7,2.972-3.874,7.181-7.029,9.686-1.912,1.521-4.336,2.231-6.562,3.266s-4.331,2.536-5.046,4.757v.081l-.03.081c-.74,2.627.69,5.3,1.435,7.921a32.093,32.093,0,0,1,.867,8.383c.056,3.428.107,6.862.051,10.295-.025,1.349-.071,2.713-.172,4.057a21.258,21.258,0,0,0-3.484,1.4,69,69,0,0,0-5.386,5.33L394.35,367.35l.112.127-.112.431.421-.1a42.786,42.786,0,0,0,8.484,7.13l.355,6.228s.426,6.248,6.172,8.829c.132,2.165.543,10.959-1.359,14.443a16.229,16.229,0,0,0-1.8,8.256s.664,5.284-.091,8.063a13.186,13.186,0,0,0-.1,5.66h0v1.668c0,5.624.066,23.648,0,25.686-.1,2.409,0,38.035,0,38.035s-.472,17.805-1.983,22.628-1.131,20.792-1.131,20.792-.948,19.023,2.4,22.775c0,.167-.03.34-.036.507v.238c-.041,1.445.238,2.982,1.481,3.454a21.219,21.219,0,0,1,6.522,4.732c.634.837,4.321,2.921,9.128,2.363a68.736,68.736,0,0,1,9.073-.416h0s1.9-.345,1.283-2.7h0a21.114,21.114,0,0,0-2.931-5.218c.193.051.38.091.558.127l.183.035h.142a1.931,1.931,0,0,0,.233,0h.1a1.737,1.737,0,0,0,.284,0h0c1.273-.122,6.02,2.089,6.867,3.55s3.834,2.571,6.086,2.85a43.235,43.235,0,0,0,7.551-.477,27.8,27.8,0,0,0,4.229-.771c.669-.254.811-1.065.619-1.978h0a5.147,5.147,0,0,0-1.755-2.962,14.241,14.241,0,0,1-2.708-3.378l-.213-.34c1.415-1.349,3.971-5.761,4.747-6.674.943-1.111-1.521-41.727-1.521-41.727V488.859l3.778-19.271,2.642-10.2,2.267-15.4s3.966-17.983,2.744-19.748h0c0-.036-1.014-18.551-2.079-23-.461-1.983-.345-6.446-.071-10.787a2.13,2.13,0,0,0,.507-2.221,4.6,4.6,0,0,0-.294-.756v-.233a34.921,34.921,0,0,1,6.831-2.323c3.778-.74,2.835-2.688,2.835-2.688s.852-1.668,1.415-2.688.1-10.016,0-10.756c-.036-.3-.269-1.952-.538-3.829,1.212-.862,2.789-1.932,4.508-2.946C483.468,360.083,482.733,358.039,482.464,357.506ZM433.171,486.08s-2.835,7.232-1.7,9.083-.188,8.723-.188,8.723l-.948,10.2s-2.642,18.916-1.7,23.364c.74,3.489,1.014,13.911,1.1,18.257h0a1.268,1.268,0,0,0-.188.091l-.127.066c.436-1.709.254-5.168-1.912-12.126L427.329,515s-.335-33.2,2.287-36.909,3.55-10.016,3.55-10.016-.568,9.093-.938,11.5S433.171,486.08,433.171,486.08Zm-5.279,71.435c-.025.061-.056.122-.076.178l-.142-.183a1.487,1.487,0,0,0,.218.005Z" transform="translate(-202.7 -145.653)" fill="url(#linear-gradient)"/>
    <path id="Path_270" data-name="Path 270" d="M489.754,842.291a50.353,50.353,0,0,1-11.634,1.253c-2.221-.269-5.163-1.395-6-2.865s-5.528-3.692-6.785-3.55a4.563,4.563,0,0,1-1.521-.213,18.738,18.738,0,0,1-2.536-.974,4.709,4.709,0,0,1,.056-1.927,3.115,3.115,0,0,1,.112-.375,3.352,3.352,0,0,1,1.7-1.9l.183-.086a5.153,5.153,0,0,1,1.1-.335c3.986-.766,20.432.771,20.432.771s.462.827,1.1,1.851a14.15,14.15,0,0,0,2.678,3.4,5.2,5.2,0,0,1,1.729,2.982C490.555,841.221,490.413,842.043,489.754,842.291Z" transform="translate(-235.65 -419.04)" fill="#fff"/>
    <path id="Path_271" data-name="Path 271" d="M489.76,843.672a50.3,50.3,0,0,1-11.629,1.253c-2.221-.269-5.163-1.4-6-2.865s-5.523-3.692-6.78-3.55-4.057-1.187-4.057-1.187a4.2,4.2,0,0,1,.832-3.413l2.536,1.8s6.785,2.1,8.043,4.057,3.55,3.043,6.862,3.24c2.475.162,8.16-.8,10.822-1.283C490.561,842.6,490.424,843.424,489.76,843.672Z" transform="translate(-235.656 -420.421)" opacity="0.1"/>
    <path id="Path_272" data-name="Path 272" d="M444.463,845.056a67.521,67.521,0,0,0-8.956.421c-4.762.558-8.4-1.521-9.032-2.379a21.161,21.161,0,0,0-6.435-4.767c-1.232-.477-1.521-2.029-1.466-3.479v-.238a14.2,14.2,0,0,1,.406-2.723l19.732-.421,1.709,2.318.264.355,1.04,1.415s.472.619,1.09,1.521a21.648,21.648,0,0,1,2.9,5.254h0C446.334,844.711,444.463,845.056,444.463,845.056Z" transform="translate(-214.635 -419.218)" fill="#fff"/>
    <path id="Path_273" data-name="Path 273" d="M444.463,848.353a67.5,67.5,0,0,0-8.956.421c-4.757.558-8.4-1.521-9.027-2.379a20.569,20.569,0,0,0-6.441-4.757c-1.232-.477-1.521-2.029-1.466-3.479,1.41.33,4.371,1.171,5.533,2.637,1.521,1.958,4.245,5.249,8.114,5.457,3.124.167,10.731-.391,13.52-.614C446.339,848.009,444.463,848.353,444.463,848.353Z" transform="translate(-214.635 -422.516)" opacity="0.1"/>
    <path id="Path_274" data-name="Path 274" d="M442.1,831.891c-.228,1.694-.933,2.15-1.44,2.251a.98.98,0,0,1-.375,0,1.246,1.246,0,0,1-.2-.03s-17.719,3.915-21.3.745a2.513,2.513,0,0,1-.254-.264,14.207,14.207,0,0,1,.406-2.723l19.733-.421,1.709,2.318a3.351,3.351,0,0,1,1.7-1.9Z" transform="translate(-214.617 -419.209)" opacity="0.1"/>
    <path id="Path_275" data-name="Path 275" d="M488,833.879c-.4.436-.725.685-.933.6-.933-.375-8.581-1.678-11.01-.558s-10.65.183-10.65.183,0-.974-.046-2.536a5.166,5.166,0,0,1,1.1-.335c3.986-.766,20.432.771,20.432.771S487.37,832.855,488,833.879Z" transform="translate(-237.698 -418.996)" opacity="0.1"/>
    <path id="Path_276" data-name="Path 276" d="M474.126,585.058l-2.242,15.488-2.607,10.264-3.733,19.4v20.539s2.424,40.865,1.491,41.98-4.478,7.47-5.411,7.1-8.581-1.679-11.01-.563-10.65.188-10.65.188-.188-15.858-1.121-20.336,1.679-23.511,1.679-23.511l.933-10.259s1.308-6.907.188-8.773,1.679-9.128,1.679-9.128-1.3-4.113-.928-6.537.928-11.568.928-11.568-.928,6.349-3.52,10.077-2.262,37.132-2.262,37.132l.183,28.906c4.671,15.305,0,13.809,0,13.809s-17.719,3.92-21.3.746-2.556-23.156-2.556-23.156-.37-16.046,1.121-20.894,1.963-22.765,1.963-22.765-.1-35.829,0-38.248c.071-2.029,0-20.189,0-25.864v-1.678l2.14-5.315,25.357-3.175h12.131s18.257,4.29,20.143,6.141a.421.421,0,0,1,.1.112C478.046,566.963,474.126,585.058,474.126,585.058Z" transform="translate(-212.252 -284.887)" fill="#278bed"/>
    <path id="Path_277" data-name="Path 277" d="M472.11,770.88s5.578,13.434,8.21,14.367S472.11,770.88,472.11,770.88Z" transform="translate(-241.025 -389.356)" opacity="0.1"/>
    <path id="Path_278" data-name="Path 278" d="M476.18,809.88s18.835.933,18.647,2.987S476.18,809.88,476.18,809.88Z" transform="translate(-243.031 -408.577)" opacity="0.1"/>
    <path id="Path_279" data-name="Path 279" d="M426.49,799.29c.745.7,14.367,2.029,13.246,3.317s-12.125,3.793-12.125,3.793Z" transform="translate(-218.54 -403.358)" opacity="0.1"/>
    <path id="Path_280" data-name="Path 280" d="M422.08,753.59c0,.558,2.8,17.912,3.55,18.657s6.9,1.491,6.9,1.491Z" transform="translate(-216.367 -380.834)" opacity="0.1"/>
    <path id="Path_281" data-name="Path 281" d="M443.145,282.01c-2.673,2.987-3.829,7.222-6.943,9.747-1.892,1.521-4.285,2.247-6.486,3.281s-4.382,2.612-5.036,4.955c-.73,2.637.68,5.33,1.42,7.967a32.984,32.984,0,0,1,.857,8.434c.051,3.454.106,6.907.046,10.361-.091,5.381-.538,11.01-3.393,15.569,10.31,3.281,21.274,3.727,32.086,4.148a32.371,32.371,0,0,0,6.233-.157,53.49,53.49,0,0,0,5.31-1.344,40.709,40.709,0,0,1,10.579-1.354,17.762,17.762,0,0,0,4.645-.309,4.584,4.584,0,0,0,3.352-2.946,5.474,5.474,0,0,0-.857-4c-1.258-2.211-3.043-4.057-4.392-6.238a17.141,17.141,0,0,1-1.1-15.412c1.2-2.784,3.124-5.208,4.3-8a16.867,16.867,0,0,0-3.4-17.892c-4.093-4.189-9.965-5.812-15.584-6.674a14.154,14.154,0,0,1-6.562-2.536,11.232,11.232,0,0,0-7.475-1.45A12.2,12.2,0,0,0,443.145,282.01Z" transform="translate(-217.121 -146.46)" fill="#3f3d56"/>
    <g id="Group_171" data-name="Group 171" transform="translate(206.692 152.214)" opacity="0.1">
      <path id="Path_282" data-name="Path 282" d="M532.764,331.824a16.874,16.874,0,0,0-1.293,7.744,16.588,16.588,0,0,1,1.293-5.5c1.192-2.784,3.119-5.208,4.3-8a16.18,16.18,0,0,0,1.182-7.364,15.768,15.768,0,0,1-1.182,5.122C535.883,326.621,533.955,329.04,532.764,331.824Z" transform="translate(-476.954 -318.71)"/>
      <path id="Path_283" data-name="Path 283" d="M428.107,336.819c.03,1.988.061,3.981.066,5.969q0-4.108-.066-8.205a32.911,32.911,0,0,0-.857-8.439,41.794,41.794,0,0,1-1.521-5.244c-.451,2.485.832,5.005,1.521,7.485A32.76,32.76,0,0,1,428.107,336.819Z" transform="translate(-424.811 -319.789)"/>
      <path id="Path_284" data-name="Path 284" d="M482.832,398.25a17.147,17.147,0,0,1-4.64.309,40.68,40.68,0,0,0-10.574,1.329,53.862,53.862,0,0,1-5.31,1.339,32.037,32.037,0,0,1-6.238.162c-10.447-.411-21.041-.852-31.047-3.839a17.218,17.218,0,0,1-1.014,1.927c10.31,3.276,21.274,3.727,32.081,4.148a32.036,32.036,0,0,0,6.238-.162,52.458,52.458,0,0,0,5.289-1.334,40.68,40.68,0,0,1,10.553-1.344,17.51,17.51,0,0,0,4.64-.314,4.587,4.587,0,0,0,3.352-2.941,4.026,4.026,0,0,0-.051-2.11A4.735,4.735,0,0,1,482.832,398.25Z" transform="translate(-424.01 -356.518)"/>
    </g>
    <path id="Path_285" data-name="Path 285" d="M476.647,360.15c-.375.842-1.958,8.114-2.333,8.86s-2.424,12.678-2.612,13.348-13.5-2.8-13.5-2.8l-8.018-6.719-8.241-8.2s-.243-7.4,5.827-9.772a9.256,9.256,0,0,1,1.268-.4c7.364-1.77,6.623-24.16,6.623-24.16l15.113,6.527s-2.8,13.064-2.7,15.584c.025.847.69,1.374,1.557,1.694a12.31,12.31,0,0,0,4.128.446S477.022,359.313,476.647,360.15Z" transform="translate(-226.154 -172.213)" fill="#fbbebe"/>
    <path id="Path_286" data-name="Path 286" d="M544.326,436.446l2.145.563s1.587,2.414-2.145,4.661a64.659,64.659,0,0,0-6.811,4.762l-11.03,3.357-2.125-6.669,10.264-7.79Z" transform="translate(-266.777 -223.974)" fill="#278bed"/>
    <path id="Path_287" data-name="Path 287" d="M544.326,436.446l2.145.563s1.587,2.414-2.145,4.661a64.659,64.659,0,0,0-6.811,4.762l-11.03,3.357-2.125-6.669,10.264-7.79Z" transform="translate(-266.777 -223.974)" opacity="0.1"/>
    <path id="Path_288" data-name="Path 288" d="M400.83,449.052l-4.29,4.2s7.739,8.956,13.693,9.514,9.793-6.811,9.793-6.811l-5.152-8.114Z" transform="translate(-203.779 -230.14)" fill="#278bed"/>
    <path id="Path_289" data-name="Path 289" d="M400.83,449.052l-4.29,4.2s7.739,8.956,13.693,9.514,9.793-6.811,9.793-6.811l-5.152-8.114Z" transform="translate(-203.779 -230.14)" opacity="0.1"/>
    <circle id="Ellipse_49" data-name="Ellipse 49" cx="14.925" cy="14.925" r="14.925" transform="translate(222.88 142.878)" opacity="0.1"/>
    <circle id="Ellipse_50" data-name="Ellipse 50" cx="14.925" cy="14.925" r="14.925" transform="translate(222.88 141.757)" fill="#fbbebe"/>
    <path id="Path_290" data-name="Path 290" d="M479.957,566.881a48.186,48.186,0,0,0-9.986,2.236c-5.578,1.856-49.293.03-49.9,0v-1.678l2.14-5.315,25.357-3.175H459.7s18.257,4.29,20.143,6.141C479.917,566.207,479.957,566.881,479.957,566.881Z" transform="translate(-215.376 -284.902)" opacity="0.1"/>
    <path id="Path_291" data-name="Path 291" d="M476.647,383.285c-.375.842-1.958,8.114-2.333,8.86s-2.424,12.678-2.612,13.348-13.5-2.8-13.5-2.8l-8.018-6.72-8.241-8.2s-.243-7.4,5.827-9.772l15.072,17.329,6.785-18.079a12.309,12.309,0,0,0,4.128.446S477.022,382.448,476.647,383.285Z" transform="translate(-226.154 -195.348)" opacity="0.1"/>
    <path id="Path_292" data-name="Path 292" d="M448.422,395.133,433,377.383a6.466,6.466,0,0,0-6.121-.451c-3.454,1.5-7.744,2.708-8.865,3.454a69.159,69.159,0,0,0-5.32,5.36L425.2,418.461l-5.507,21.548s.842,11.01-1.3,15.021a16.488,16.488,0,0,0-1.775,8.3s.654,5.32-.091,8.114a13.515,13.515,0,0,0-.1,5.69s44.318,1.866,49.912,0a47.751,47.751,0,0,1,9.985-2.236s-1.014-18.663-2.029-23.141.842-21.548.842-21.548l-1.212-18.287,7.272-18.764s-3.94-12.029-8.048-13.241c0,0-7.46-1.775-9.047-2.612s-6.253-1.587-6.253-1.587l-2.449.822Z" transform="translate(-211.739 -194.594)" fill="#278bed"/>
    <rect id="Rectangle_178" data-name="Rectangle 178" width="35.52" height="54.354" rx="2.94" transform="translate(224.259 214.405) rotate(3.89)" opacity="0.1"/>
    <rect id="Rectangle_179" data-name="Rectangle 179" width="35.52" height="54.354" rx="2.94" transform="translate(225.376 213.291) rotate(3.89)" fill="#3f3d56"/>
    <rect id="Rectangle_180" data-name="Rectangle 180" width="30.945" height="46.768" transform="translate(227.381 217.518) rotate(3.89)" fill="#fff"/>
    <rect id="Rectangle_181" data-name="Rectangle 181" width="25.281" height="7.046" transform="translate(230.266 229.761) rotate(4.004)" opacity="0.1"/>
    <rect id="Rectangle_182" data-name="Rectangle 182" width="4.011" height="3.672" transform="translate(250.572 259.188) rotate(3.89)" opacity="0.1"/>
    <rect id="Rectangle_183" data-name="Rectangle 183" width="20.534" height="3.672" transform="translate(230.14 249.226) rotate(3.89)" opacity="0.1"/>
    <rect id="Rectangle_184" data-name="Rectangle 184" width="21.381" height="5.644" transform="translate(233.103 216.423) rotate(3.89)" fill="#3f3d56"/>
    <rect id="Rectangle_185" data-name="Rectangle 185" width="21.381" height="5.644" transform="translate(233.103 216.423) rotate(3.89)" opacity="0.1"/>
    <path id="Path_293" data-name="Path 293" d="M479.575,572.56s-.188,27.618-7.465,43.477c0,0,8.773-20.9,8.773-21.736s4.848-9.61,3.55-12.222S479.575,572.56,479.575,572.56Z" transform="translate(-241.025 -291.61)" opacity="0.1"/>
    <path id="Path_294" data-name="Path 294" d="M470.166,304.9a10.382,10.382,0,0,1,1.689-6.953,8.566,8.566,0,0,0,6.623,9.027,1.121,1.121,0,0,1-.319-1.227,37.528,37.528,0,0,0,3.012,3.606c1.176,1.035,2.941,1.653,4.326.918,1.881-1.014,1.9-3.687,1.415-5.766a27.082,27.082,0,0,0-6.233-11.9,8.246,8.246,0,0,0-6.542-3.327,16.093,16.093,0,0,0-8.454,1.324,22.462,22.462,0,0,0-4.057,2.835l-7.1,5.791a6.742,6.742,0,0,0-1.724,1.816,4.97,4.97,0,0,0-.538,1.9,10.249,10.249,0,0,0,4.777,9.671,7.561,7.561,0,0,1,4.529-7.1,1.968,1.968,0,0,1,.7,1.466l1.5-2.668a2.937,2.937,0,0,1,1.014-1.2c.923-.507,2.074.091,2.86.806s1.552,1.608,2.607,1.719l.041-3.971" transform="translate(-231.221 -151.955)" opacity="0.1"/>
    <path id="Path_295" data-name="Path 295" d="M470.186,303.8a10.387,10.387,0,0,1,1.689-6.958,8.57,8.57,0,0,0,6.628,9.027,1.11,1.11,0,0,1-.32-1.222,38.169,38.169,0,0,0,3.012,3.606c1.176,1.04,2.941,1.653,4.326.913,1.881-1.014,1.9-3.687,1.415-5.761a27.081,27.081,0,0,0-6.233-11.9,9.975,9.975,0,0,0-3.484-2.708,10.143,10.143,0,0,0-3.043-.619,16.091,16.091,0,0,0-8.454,1.319,22.749,22.749,0,0,0-4.057,2.84l-7.1,5.791a6.668,6.668,0,0,0-1.724,1.816,4.943,4.943,0,0,0-.538,1.9,10.244,10.244,0,0,0,4.777,9.666,7.572,7.572,0,0,1,4.529-7.1,1.983,1.983,0,0,1,.7,1.466l1.491-2.657a2.907,2.907,0,0,1,1.014-1.2c.923-.507,2.074.091,2.86.806s1.552,1.6,2.607,1.719l.041-3.976" transform="translate(-231.241 -151.412)" fill="#3f3d56"/>
    <path id="Path_296" data-name="Path 296" d="M457.764,476.656c-1.3-.659-22.857,2.7-22.857,2.7a123.326,123.326,0,0,0-12.131-2.424c-8.581-1.41-9.128-9.8-9.128-9.8l-.938-16.791,2.9-2.536,12.4,8.114a40.092,40.092,0,0,1,0,4.843,6.823,6.823,0,0,0-.416,1.521.507.507,0,0,0,.416.456c.842.213,12.313,2.069,12.313,2.069s26.589-1.821,33.217,7.135a6.733,6.733,0,0,1,1.171,2.211C476.355,480.282,458.945,477.239,457.764,476.656Z" transform="translate(-211.749 -230.125)" fill="#fbbebe"/>
    <path id="Path_297" data-name="Path 297" d="M488.81,488.3c-1.014.451-1.643.776-1.643.776s-9.514-.279-14.859-2.216a34.9,34.9,0,0,0-11.842-1.592s-22.273-3.834-18.82-8.839a.507.507,0,0,0,.416.456c.842.213,12.313,2.069,12.313,2.069s26.589-1.821,33.217,7.135A6.735,6.735,0,0,1,488.81,488.3Z" transform="translate(-225.831 -244.231)" opacity="0.1"/>
    <path id="Path_298" data-name="Path 298" d="M498.076,441.58s1.308,9.235,1.4,9.986.563,9.793,0,10.822-1.4,2.7-1.4,2.7.933,1.958-2.8,2.708a38.314,38.314,0,0,0-8.114,2.982s-9.519-.279-14.834-2.236a34.231,34.231,0,0,0-11.847-1.587S432.21,462.1,444.34,456.18s20.711,2.1,20.711,2.1l13.525-.837s5.041-3.083,6.441-2.8a5.178,5.178,0,0,0,2.891-.467l.1-9.8Z" transform="translate(-225.847 -227.054)" fill="#fbbebe"/>
    <path id="Path_299" data-name="Path 299" d="M407.393,396.742l-2.708-.142-8.205,31.949s8.86-2.242,12.678,0,10.822,2.7,10.822,2.7l-2.612-25.468Z" transform="translate(-203.749 -204.885)" opacity="0.1"/>
    <path id="Path_300" data-name="Path 300" d="M407.393,395.632l-2.708-.142-8.205,31.949s8.86-2.242,12.678,0,10.822,2.7,10.822,2.7l-2.612-25.468Z" transform="translate(-203.749 -204.338)" fill="#278bed"/>
    <path id="Path_301" data-name="Path 301" d="M534.555,409.57l3.727.842S547.8,424.1,548.547,424.87s-3.55,3.55-5.32,3.55-10.447,1.014-12.967,3.357-1.471-9.448-1.471-9.717,3.129-7.708,3.129-7.708Z" transform="translate(-268.853 -211.278)" opacity="0.1"/>
    <path id="Path_302" data-name="Path 302" d="M534.555,408.47l3.727.837s9.519,13.718,10.264,14.463-3.55,3.55-5.32,3.55-10.447,1.014-12.967,3.357-1.471-9.448-1.471-9.717,3.149-7.734,3.149-7.734Z" transform="translate(-268.853 -210.736)" fill="#278bed"/>
    <g id="Group_172" data-name="Group 172" transform="translate(221.017 144.313)" opacity="0.1">
      <path id="Path_303" data-name="Path 303" d="M471.849,304.3a7.473,7.473,0,0,1,.025-1.166,10.38,10.38,0,0,0-1.562,3.829v1.415c0,.822,0,1.648-.025,2.47h-.071v.38a2.019,2.019,0,0,0-.025-.391,5.4,5.4,0,0,1-2.5-1.694c-.756-.68-1.937-1.329-2.86-.806a2.906,2.906,0,0,0-1.014,1.2l-1.506,2.657a1.962,1.962,0,0,0-.7-1.461,7.561,7.561,0,0,0-4.529,7.1,10.3,10.3,0,0,1-4.813-8.079,10.254,10.254,0,0,0,4.813,9.194,7.572,7.572,0,0,1,4.529-7.1,1.983,1.983,0,0,1,.7,1.466l1.491-2.657a2.907,2.907,0,0,1,1.014-1.2c.923-.507,2.074.091,2.86.806s1.552,1.6,2.607,1.719q0-1.947.041-3.885a10.33,10.33,0,0,1,1.521-3.8Z" transform="translate(-452.256 -303.13)"/>
      <path id="Path_304" data-name="Path 304" d="M487.5,313.154c.025-.345.066-.69.117-1.014l.056-1.4A10.262,10.262,0,0,0,487.5,313.154Z" transform="translate(-469.621 -306.881)"/>
      <path id="Path_305" data-name="Path 305" d="M510.653,323.039c-1.384.74-3.149.122-4.326-.913a37.569,37.569,0,0,1-3.012-3.606,1.121,1.121,0,0,0,.32,1.227,1.194,1.194,0,0,1-.294-.076,33.512,33.512,0,0,0,2.987,3.55c1.167,1.014,2.941,1.653,4.326.913s1.78-2.475,1.658-4.164A3.521,3.521,0,0,1,510.653,323.039Z" transform="translate(-477.389 -310.715)"/>
      <path id="Path_306" data-name="Path 306" d="M497.21,313.446a8.621,8.621,0,0,1-6.319-7.536,8.565,8.565,0,0,0,6.643,8.738A1.116,1.116,0,0,1,497.21,313.446Z" transform="translate(-471.289 -304.5)"/>
    </g>
    <path id="Path_307" data-name="Path 307" d="M878.575,375.751s-2-.279-2-3.185a45.691,45.691,0,0,0-1.43-8.347h0s-1.237-9.468-2.946-10.969-3.905-10.315-3.905-10.315-.375-4.782-1.141-5.812-1.8-3.55-3.327-7.146-7.876-6.06-7.876-6.06-11.507-6.674-14.768-8.849h0a5.04,5.04,0,0,1-.832-.629c-.568-.74-3.043-.756-3.043-.756a50.15,50.15,0,0,1-.588-5.213v-.548a17.547,17.547,0,0,0,7.714-9.544c.061-.193.112-.391.167-.588a1.648,1.648,0,0,0,1.014-.893,17.907,17.907,0,0,1,.664-2.029,7.521,7.521,0,0,1,1.876-1.643c1.613-1.374,2.028-3.682,1.952-5.776-.051-1.7-.325-3.418-.218-5.107a2.012,2.012,0,0,1,.03-.426c.031-.248.066-.507.112-.751.249-1.258.791-2.444,1.1-3.692a4.75,4.75,0,0,0-.375-3.727c-1.04-1.577-3.205-1.892-5.107-2.029-2.155-.182-4.057.051-5.462-1.739a19.11,19.11,0,0,0-2.171-2.617c-.284-.264-3.043-1.952-3.043-2.059a12.329,12.329,0,0,0-8.621-.664c-1.435.416-2.779,1.1-4.235,1.435-3.124.74-6.724-.061-9.382,1.729a11.071,11.071,0,0,0-3.2,4.2q-1.014,1.937-2.059,3.88a24.967,24.967,0,0,0-2.734,6.638,11.236,11.236,0,0,0-.188,1.557h0v.806a2.775,2.775,0,0,0,.031.507,2.892,2.892,0,0,0,.036.314c.035.106.046.345.076.507s.091.451.152.669a1.029,1.029,0,0,0,.091.284c.03.1.112.34.177.507s.071.177.112.264a4.719,4.719,0,0,0,.259.507c.041.066.071.132.112.2a5.774,5.774,0,0,0,.467.68c1.08,1.354,2.683,2.216,3.864,3.484v.568a17.359,17.359,0,0,0,7.952,14.149c0,.193.025.391.035.588a28.959,28.959,0,0,1-.056,4.513,2.14,2.14,0,0,0-1.684-.751,2.411,2.411,0,0,0-.649.056l-.046-.035h0v.046c-1.116.274-2.49,1.435-3.8,4.737,0,0-4,4.5-7.039,4.316s-10.746,4.691-10.746,4.691-7.516,4.874-9.128,9.843a68.808,68.808,0,0,1-3.241,8.256l-9.316,19.129h0L770.5,378.125s.948,6.75.761,7.785,3.9,10.315,3.9,10.315,13.5,23.724,19.022,24.941l.4-.274a3.458,3.458,0,0,0,.746.274l1.136-.8a11.873,11.873,0,0,1-.091,2.673c-.756,2.348.289,17.633,1.618,20.63s.857,42.3.857,42.3l-.188,3.464a1.47,1.47,0,0,0,.046.3l-.046.822.137.071a9.8,9.8,0,0,1-.137,3.306,36.664,36.664,0,0,0-.669,5.817s-3.8,24.281-2,29.16,3.332,10.224,3.332,10.224,1.9,6.086.091,7.1-6.938,2.815-5.893,5.345c.964,2.343,4.62,8.621,5.163,9.539l-.046.507-.745,8.079a10.14,10.14,0,0,0,.857,3.083,5.3,5.3,0,0,0,5.421,3.388c.507-.035,1.09-.091,1.663-.167a72.068,72.068,0,0,0,12.318-3.21,4.858,4.858,0,0,1-.958-.8h0a2.784,2.784,0,0,1-.847-2.029c.081-1.476-2.673-8.479-3.362-10.209l-.157-.385s6.278-6.567,5.234-12.379c0,0-6.948-4.057-4.661-6.288s6.375-8.621,6.375-8.621.188-23.911,0-27.477a29.611,29.611,0,0,1,.35-7.424c.076-.365.167-.725.264-1.085a64.786,64.786,0,0,0,9.564.725q1.755,0,3.55-.071,0,.507.046,1.1c.264,5.923.756,16.314,1.156,20.174.568,5.528,3.707,20.443,3.707,20.443s-5.989,3.839,1.045,13.317c0,0,0,3.428-.467,3.93h0a42.959,42.959,0,0,0-1.2,4.955c-.294,1.78-.416,3.59.061,4.524,1.141,2.242,7.987,2.059,7.987,2.059h0a1.076,1.076,0,0,1,.167-.025,9.772,9.772,0,0,1,7.247,2.181c2.6,2.089,12.47,1.177,17.821.507,2.094-.269,3.494-.507,3.494-.507a2.054,2.054,0,0,0,.071-.73h0c-.056-1.313-1.085-4.194-8.063-6.765,0,0-6.562-4.412-6.471-8.256h-.9c.477-.015.811-.015.811-.015s-2.571-9.377-1.521-10.143-2.095-11.157-2.095-11.157-1.8-17.445-1.9-18.662a10.719,10.719,0,0,1,.477-3.093l-.477-9.57s-.091-3.18,0-4.214a19.818,19.818,0,0,0-.213-2.683c-.046-.355-.091-.725-.142-1.09,2.459-.624,4.057-1.2,4.057-1.2l-.284-33.293c2.089-4.057,2.475-12.962,2.465-19.271,0-4.057-.182-7.059-.182-7.059l2.855-4.661s.659-5.578-.385-6.8a1.171,1.171,0,0,1,.127-1.6,5.316,5.316,0,0,1,.634-.446.8.8,0,0,1-.066-.112,5.024,5.024,0,0,1,.634-.451s-1.014-1.572-.107-2.236c.852.578,1.613,1.04,2.191,1.369-.041.37-.081.583-.081.583l.243-.507.9.507s4.473-8.91,4.376-10.219,3.043-6.846,3.043-6.846.38-2.911,2.094-4.128,1.329-10.036,1.329-10.036.477-4.595,1.618-6.466S878.575,375.751,878.575,375.751Zm-85.584-3.91.086,2.125c-.507-.816-.872-1.4-.872-1.4Z" transform="translate(-388.091 -139.607)" fill="url(#linear-gradient-2)"/>
    <path id="Path_308" data-name="Path 308" d="M950.1,546.678l-1.1,4.666s-8.773-4.488-10.35-10.168,2.642-7.845,2.642-7.845l8.18,3.459Z" transform="translate(-470.797 -272.275)" fill="#fff"/>
    <path id="Path_309" data-name="Path 309" d="M950.1,546.678l-1.1,4.666s-8.773-4.488-10.35-10.168,2.642-7.845,2.642-7.845l8.18,3.459Z" transform="translate(-470.797 -272.275)" opacity="0.1"/>
    <path id="Path_310" data-name="Path 310" d="M845.184,854.829s-8.114,2.982-13.693,3.357a5.21,5.21,0,0,1-5.32-3.367,10.293,10.293,0,0,1-.842-3.043l.735-8.038.385-4.275L838.3,836.38l1.678,5.137.157.385c.67,1.719,3.378,8.687,3.3,10.143a2.784,2.784,0,0,0,.827,2.028A4.715,4.715,0,0,0,845.184,854.829Z" transform="translate(-415.116 -421.638)" fill="#fff"/>
    <path id="Path_311" data-name="Path 311" d="M938.339,850.2a2.029,2.029,0,0,1-.071.73s-17.354,2.891-20.9,0a9.4,9.4,0,0,0-7.282-2.145s-6.714.183-7.835-2.028c-.467-.928-.345-2.728-.056-4.5a43.16,43.16,0,0,1,1.177-4.929l.269-.213,1.6-1.283,18.7-.553h.142c-.091,3.824,6.344,8.21,6.344,8.21C937.275,846.026,938.284,848.891,938.339,850.2Z" transform="translate(-452.872 -421.096)" fill="#fff"/>
    <path id="Path_312" data-name="Path 312" d="M938.342,856.977a2.09,2.09,0,0,1-.076.73s-17.354,2.891-20.9,0a9.4,9.4,0,0,0-7.287-2.145s-6.72.182-7.84-2.029c-.461-.928-.345-2.728-.056-4.5,2.586.259,6.669.9,8.271,2.444,2.424,2.333,6.532,4.666,9.047,4.853C921.49,856.449,933.311,856.825,938.342,856.977Z" transform="translate(-452.869 -427.873)" opacity="0.1"/>
    <path id="Path_313" data-name="Path 313" d="M846,872.006s-8.114,2.982-13.693,3.357A5.21,5.21,0,0,1,826.99,872c2.069.695,4.934,1.42,6.441.756,1.785-.8,8.114-1.3,11.664-1.521a4.614,4.614,0,0,0,.908.776Z" transform="translate(-415.934 -438.815)" opacity="0.1"/>
    <path id="Path_314" data-name="Path 314" d="M875.108,369.293c-6.694-2.6-15.305-11.2-13.155-15.214a9.093,9.093,0,0,0,.837-3.225,29.43,29.43,0,0,0,.061-4.564,62.686,62.686,0,0,0-.9-7.429s20.9.472,19.682,3.55a11.421,11.421,0,0,0-.314,4.224c.1,1.75.35,3.743.614,5.421.36,2.3.73,4.057.73,4.057s-1.283,1.79-2.028,1.887S884.713,373.02,875.108,369.293Z" transform="translate(-433 -176.427)" fill="#cf6f80"/>
    <path id="Path_315" data-name="Path 315" d="M840.813,841.853l-.157.172c-6.248-7.556-13.8,1.866-13.8,1.866l-.111-.2.385-4.275,11.852-3.083,1.679,5.137Z" transform="translate(-415.811 -421.614)" opacity="0.1"/>
    <path id="Path_316" data-name="Path 316" d="M925.5,835.793s-4.564-.091-7,2.059-14.2.461-13.693,0a1.756,1.756,0,0,0,.264-.776l1.6-1.283,18.7-.553C925.44,835.595,925.5,835.793,925.5,835.793Z" transform="translate(-454.278 -421.077)" opacity="0.1"/>
    <path id="Path_317" data-name="Path 317" d="M843.566,709.586a14.205,14.205,0,0,0-.771,2.6,29.77,29.77,0,0,0-.35,7.384c.188,3.55,0,27.34,0,27.34s-4.011,6.344-6.253,8.581,4.564,6.253,4.564,6.253c1.014,5.786-5.132,12.318-5.132,12.318-6.248-7.556-13.8,1.861-13.8,1.861s-4.108-7.1-5.132-9.635,4.011-4.285,5.781-5.32-.091-7.1-.091-7.1-1.491-5.32-3.266-10.173,1.957-29.008,1.957-29.008a37.5,37.5,0,0,1,.654-5.791,9.8,9.8,0,0,0,.137-3.286c-.03-.37-.066-.675-.091-.887s-.046-.3-.046-.3l.071-.122,2.536-4.726S844.783,706.609,843.566,709.586Z" transform="translate(-410.789 -354.209)" fill="#278bed"/>
    <path id="Path_318" data-name="Path 318" d="M920.168,773.212s-4.564-.1-7,2.029-14.2.467-13.693,0,.461-3.915.461-3.915c-6.9-9.428-1.014-13.251-1.014-13.251s-3.078-14.834-3.636-20.336c-.39-3.839-.872-14.2-1.131-20.067-.112-2.536-.177-4.285-.177-4.285l5.589-1.111.725-.142,13.6-2.733s.375,2.536.629,4.61a20.254,20.254,0,0,1,.208,2.673c-.086,1.014,0,4.194,0,4.194l.467,9.514a10.974,10.974,0,0,0-.467,3.078c.1,1.217,1.866,18.566,1.866,18.566s3.078,10.356,2.029,11.1S920.168,773.212,920.168,773.212Z" transform="translate(-448.951 -359.054)" fill="#278bed"/>
    <path id="Path_319" data-name="Path 319" d="M881.962,342.44a11.416,11.416,0,0,0-.314,4.224,17.37,17.37,0,0,1-18.47-.345,62.711,62.711,0,0,0-.9-7.429S883.179,339.362,881.962,342.44Z" transform="translate(-433.327 -176.442)" opacity="0.1"/>
    <path id="Path_320" data-name="Path 320" d="M883.278,306.944a17.35,17.35,0,0,1-34.7.416v-.416a17.354,17.354,0,1,1,34.708,0Z" transform="translate(-426.575 -152.143)" fill="#cf6f80"/>
    <path id="Path_321" data-name="Path 321" d="M875.108,380.949c-6.694-2.6-15.305-11.2-13.155-15.214a9.093,9.093,0,0,0,.837-3.225l9.164,7.536,5.67,4.65,4.311-10.969c.36,2.3.73,4.057.73,4.057s-1.283,1.79-2.028,1.887S884.713,384.677,875.108,380.949Z" transform="translate(-433 -188.083)" opacity="0.1"/>
    <path id="Path_322" data-name="Path 322" d="M876.741,394.929l-7.653,128.558-9.98.654L833.26,449.6l4.24-88.5.9-18.7,11.492,9.438,5.67,4.65L860,345.194l8.251,7.191Z" transform="translate(-410.935 -168.759)" fill="#278bed"/>
    <path id="Path_323" data-name="Path 323" d="M848.582,709.625a14.223,14.223,0,0,0-.771,2.6,73.535,73.535,0,0,1-20.945-6.537l-.137-.071.046-.817v-.426l2.536-4.726S849.8,706.648,848.582,709.625Z" transform="translate(-415.806 -354.249)" opacity="0.1"/>
    <path id="Path_324" data-name="Path 324" d="M899.706,719.847a51.362,51.362,0,0,1-5.609.644c-.112-2.536-.178-4.285-.178-4.285l5.619-1.136Z" transform="translate(-448.921 -361.849)" opacity="0.1"/>
    <path id="Path_325" data-name="Path 325" d="M920.7,714.01c-3.606.938-9.179,1.993-14.159,1.334l-.071-3.21,13.6-2.733S920.431,711.915,920.7,714.01Z" transform="translate(-455.107 -359.054)" opacity="0.1"/>
    <path id="Path_326" data-name="Path 326" d="M842.51,544.161c-20.792,3.55-39.835-6.628-39.835-6.628l.183-3.448s.472-39.095-.837-42.092-2.328-18.176-1.587-20.493-2.7-37.31-2.7-37.31l-.558-14.2-20.432-8.3,9.128-19.033a68.777,68.777,0,0,0,3.175-8.216c1.587-4.944,8.956-9.8,8.956-9.8s7.556-4.848,10.543-4.666,6.9-4.29,6.9-4.29c2.891-7.369,5.507-4.057,5.507-4.057a6.516,6.516,0,0,1-.142,1.09c-1.014,8.089,16.4,33.648,16.649,34.1h0l1.679,40.4,1.679,51.124Z" transform="translate(-391.167 -187.283)" opacity="0.1"/>
    <path id="Path_327" data-name="Path 327" d="M841.4,544.161c-20.792,3.55-39.84-6.628-39.84-6.628l.188-3.448s.467-39.095-.842-42.092-2.328-18.191-1.582-20.529-2.718-37.295-2.718-37.295l-.563-14.2-20.427-8.3,9.128-19.033a69.866,69.866,0,0,0,3.175-8.211c1.587-4.929,8.981-9.788,8.981-9.788s7.556-4.848,10.538-4.666,6.917-4.285,6.917-4.285c2.9-7.369,6.086-4.057,6.086-4.057,0,.355-.3.507-.142,1.09,2.231,7.845,15.843,33.648,16.091,34.1h0l1.679,40.4,1.643,51.149Z" transform="translate(-390.61 -187.283)" fill="#fff"/>
    <path id="Path_328" data-name="Path 328" d="M875.664,399.09c-2.237-.933-14.083-14.458-14.083-14.458v-3.078c-.431-1.014-3-.4-5.071.314l.893-18.7,1.014.842C860.633,371.852,875.421,398.639,875.664,399.09Z" transform="translate(-430.483 -188.409)" opacity="0.1"/>
    <path id="Path_329" data-name="Path 329" d="M876.769,396.9c-2.242-.938-14.088-14.458-14.088-14.458v-3.083c-.431-1.014-2.992-.4-5.071.314L858.487,361l1.014.837C861.738,369.667,876.521,396.449,876.769,396.9Z" transform="translate(-431.025 -187.339)" fill="#fff"/>
    <path id="Path_330" data-name="Path 330" d="M826.771,563.351c.279,0,14.458-1.491,14.458-1.491s8.586,16.887,8.023,20.99-1.582,7.744-5.036,7.1-18.586.507-18.586.507Z" transform="translate(-415.263 -286.336)" opacity="0.1"/>
    <path id="Path_331" data-name="Path 331" d="M825.661,561.141c.284,0,14.463-1.491,14.463-1.491s8.581,16.913,8.023,20.97-1.587,7.744-5.036,7.1-18.591.507-18.591.507Z" transform="translate(-414.716 -285.247)" fill="#fff"/>
    <path id="Path_332" data-name="Path 332" d="M840.3,547s13.013,7,13.292,9.128-6.623-.933-8.114-1.308a19.344,19.344,0,0,0-2.987-.466l-9.945.269Z" transform="translate(-418.674 -279.012)" fill="#cf6f80"/>
    <circle id="Ellipse_51" data-name="Ellipse 51" cx="1.369" cy="1.369" r="1.369" transform="translate(440.176 208.815)" opacity="0.1"/>
    <circle id="Ellipse_52" data-name="Ellipse 52" cx="1.369" cy="1.369" r="1.369" transform="translate(440.176 208.257)" fill="#3f3d56"/>
    <circle id="Ellipse_53" data-name="Ellipse 53" cx="1.369" cy="1.369" r="1.369" transform="translate(442.696 268.089)" opacity="0.1"/>
    <circle id="Ellipse_54" data-name="Ellipse 54" cx="1.369" cy="1.369" r="1.369" transform="translate(442.696 267.526)" fill="#3f3d56"/>
    <circle id="Ellipse_55" data-name="Ellipse 55" cx="1.369" cy="1.369" r="1.369" transform="translate(441.545 238.452)" opacity="0.1"/>
    <circle id="Ellipse_56" data-name="Ellipse 56" cx="1.369" cy="1.369" r="1.369" transform="translate(441.545 237.894)" fill="#3f3d56"/>
    <path id="Path_333" data-name="Path 333" d="M927.209,464.264s.933,1.4,0,2.029.091,2.242.091,2.242-2.328,1.359-1.3,2.591.375,6.765.375,6.765l-2.8,4.661s.167,2.987.177,7.024c0,6.3-.37,15.153-2.419,19.19l.274,33.121s-9.8,3.585-18.008,2.49l-1.217-53.148s1.775-30.139,2.429-35.92a60.188,60.188,0,0,0,.467-9.052s-.279-9.047-1.217-13.241c0,0-1.014-18.2-1.116-23.232-.046-2.409.081-9.438.223-16.122.157-7.308.335-14.2.335-14.2l-1.851-14.651s1.851-.183,2.409.558a5.335,5.335,0,0,0,.812.624h0c3.2,2.16,14.489,8.8,14.489,8.8s6.248,2.485,7.744,6.045a52.67,52.67,0,0,0,3.261,7.1c.725,1.014,1.121,5.781,1.121,5.781s2.15,8.773,3.829,10.259S938.2,414.9,938.2,414.9l-14.834,11.664s-1.3,19.4-1.582,20.153S927.209,464.264,927.209,464.264Z" transform="translate(-452.731 -189.207)" fill="#fff"/>
    <path id="Path_334" data-name="Path 334" d="M927.757,464.092s.928,1.4,0,2.028.086,2.242.086,2.242-2.328,1.359-1.3,2.591.375,6.765.375,6.765l-2.789,4.661s.167,2.987.182,7.024c0,6.3-.37,15.153-2.419,19.19l.279,33.121s-9.8,3.585-18.008,2.49l-1.212-53.147s1.77-30.139,2.429-35.92a59.626,59.626,0,0,0,.462-9.052s-.279-9.047-1.212-13.241c0,0-1.014-18.2-1.121-23.232-.046-2.409.081-9.438.223-16.122.157-7.308.335-14.2.335-14.2L901.62,364.44s2.444,0,3.007.756a4.808,4.808,0,0,0,.812.624h0c3.195,2.16,14.484,8.8,14.484,8.8s6.233,2.485,7.754,6.045a56.2,56.2,0,0,0,3.261,7.1c.725,1.014,1.121,5.781,1.121,5.781s2.15,8.773,3.829,10.259,2.891,10.919,2.891,10.919l-14.834,11.664s-1.3,19.4-1.587,20.153S927.757,464.092,927.757,464.092Z" transform="translate(-452.716 -189.035)" fill="#fff"/>
    <path id="Path_335" data-name="Path 335" d="M910.53,384.679l1.344,3.9-7.054,7.1c.157-7.308.335-14.2.335-14.2L902.71,366.64s2.444,0,3.007.756a4.807,4.807,0,0,0,.811.624h0l5.994,17.288Z" transform="translate(-453.254 -190.119)" opacity="0.1"/>
    <path id="Path_336" data-name="Path 336" d="M909.4,382.459l1.344,3.9-7.049,7.1c.152-7.308.335-14.2.335-14.2L901.58,364.41s2.449,0,3.007.756a5.074,5.074,0,0,0,.812.624h0l6.03,17.3Z" transform="translate(-452.697 -189.02)" fill="#fff"/>
    <path id="Path_337" data-name="Path 337" d="M883.278,306.944a17.3,17.3,0,0,1-.852,5.381.72.72,0,0,1-.548-.132c-.137-4.564-2.379-8.854-5.142-12.5a13.243,13.243,0,0,0-2.789-2.891,5.462,5.462,0,0,0-3.783-1.07c-1.521.208-2.865,1.242-4.4,1.374-2.029.167-3.844-1.237-5.857-1.3a5.741,5.741,0,0,0-4.306,2,11.745,11.745,0,0,0-2.307,4.275A25.042,25.042,0,0,0,852,309.459c-.025,1.42-.162,3.2-1.481,3.717a7.557,7.557,0,0,0-1.912-5.781l-.03-.036v-.416a17.354,17.354,0,1,1,34.708,0Z" transform="translate(-426.575 -152.143)" opacity="0.1"/>
    <path id="Path_338" data-name="Path 338" d="M868,268.376a11.948,11.948,0,0,0-8.429-.659c-1.4.416-2.728,1.09-4.153,1.43-3.043.735-6.593-.061-9.2,1.719a10.985,10.985,0,0,0-3.134,4.179l-2.029,3.859a25.077,25.077,0,0,0-2.683,6.593,8.433,8.433,0,0,0,1.293,6.811c1.07,1.359,2.662,2.216,3.829,3.5a7.607,7.607,0,0,1,1.907,5.8c1.318-.507,1.45-2.3,1.481-3.717a25.071,25.071,0,0,1,1.288-7.384,11.746,11.746,0,0,1,2.307-4.275,5.746,5.746,0,0,1,4.306-2c2.029.071,3.849,1.476,5.857,1.3,1.521-.127,2.87-1.161,4.4-1.369a5.436,5.436,0,0,1,3.783,1.07,12.994,12.994,0,0,1,2.784,2.891c2.769,3.651,5.016,7.921,5.147,12.5.573.416,1.4-.132,1.684-.781a18.547,18.547,0,0,1,.654-2.029,7.5,7.5,0,0,1,1.836-1.638c1.582-1.364,1.978-3.661,1.917-5.746s-.467-4.2-.071-6.248c.238-1.253.776-2.434,1.07-3.677a4.807,4.807,0,0,0-.365-3.707c-1.014-1.567-3.149-1.881-5.01-2.029-2.115-.183-4.006.051-5.355-1.729a19.834,19.834,0,0,0-2.13-2.607C870.707,270.161,868,268.487,868,268.376Z" transform="translate(-421.443 -141.127)" fill="#512e4e"/>
    <path id="Path_339" data-name="Path 339" d="M781.5,470.843l-5.294-9.793-1.679,15.113s.933,6.714.745,7.744,3.824,10.259,3.824,10.259,13.251,23.607,18.662,24.819l18.257-13.064-4.848-6.157s-1.679-.654-2.1,0c0,0-9.007-15.488-9.935-16.6s-.75-3.362-.75-3.362-1.4-1.491-.933-2.891-2.678-6.248-2.678-6.248l2.891-2.7Z" transform="translate(-390.078 -236.651)" opacity="0.1"/>
    <path id="Path_340" data-name="Path 340" d="M775.4,458.84l-1.4,1.121-1.679,15.112s.933,6.714.745,7.744,3.829,10.259,3.829,10.259,13.246,23.607,18.657,24.819l18.287-13.064-4.853-6.157s-1.679-.654-2.1,0c0,0-9-15.488-9.935-16.6s-.745-3.362-.745-3.362-1.4-1.491-.933-2.891-2.708-6.248-2.708-6.248l2.891-2.7Z" transform="translate(-388.989 -235.561)" fill="#fff"/>
    <path id="Path_341" data-name="Path 341" d="M939.372,566.847c1.014,1.232.375,6.77.375,6.77l-2.8,4.63s.167,2.992.177,7.029l-4.706,1.471a2.8,2.8,0,0,1-3.631-2.759l.817-26.168,10.979,4.194c-.933.649.091,2.242.091,2.242S938.348,565.615,939.372,566.847Z" transform="translate(-466.106 -284.345)" opacity="0.1"/>
    <path id="Path_342" data-name="Path 342" d="M940.482,565.742c1.014,1.227.375,6.765.375,6.765l-2.789,4.635s.167,2.987.182,7.024l-4.792,1.5a2.733,2.733,0,0,1-3.55-2.693l.816-26.259,10.974,4.2c-.938.649.086,2.241.086,2.241S939.458,564.51,940.482,565.742Z" transform="translate(-466.658 -283.798)" fill="#fff"/>
    <path id="Path_343" data-name="Path 343" d="M949.4,545.931s-.745,4.762-2.612,5.041-2.7,7.7-4.564,7.445-.629-6.907-.563-8.2-2.029-6.623-.467-7.835,6.532,0,6.532,0Z" transform="translate(-471.936 -276.473)" fill="#cf6f80"/>
    <path id="Path_344" data-name="Path 344" d="M951.448,470.7l3.515-7.1a45.95,45.95,0,0,1,1.4,8.3c0,2.891,1.958,3.175,1.958,3.175s2.145,2.536,1.014,4.387-1.582,6.436-1.582,6.436.37,8.768-1.308,9.98-2.054,4.108-2.054,4.108-3.078,5.5-2.982,6.811-4.29,10.168-4.29,10.168,2.145-11.01-10.355-15.767c0,0-.1-3.733.837-4.757s2.389-1.521,1.476-6.674-.264-11.365-.264-12.607,2.8-8.986,2.8-8.986Z" transform="translate(-470.038 -237.907)" opacity="0.1"/>
    <path id="Path_345" data-name="Path 345" d="M954.12,461.6l3.073,1.014a45.943,45.943,0,0,1,1.4,8.3c0,2.891,1.958,3.175,1.958,3.175s2.145,2.536,1.014,4.387-1.587,6.436-1.587,6.436.375,8.768-1.3,9.98S956.651,499,956.651,499s-3.078,5.5-2.982,6.811-4.3,10.168-4.3,10.168,2.145-11.01-10.356-15.767c0,0-.091-3.732.842-4.757s2.389-1.521,1.476-6.674-.264-11.365-.264-12.607,2.8-8.986,2.8-8.986Z" transform="translate(-471.147 -236.922)" fill="#fff"/>
    <path id="Path_346" data-name="Path 346" d="M834.92,822.86s4.9-3.078,8.114-.842S834.92,822.86,834.92,822.86Z" transform="translate(-419.842 -414.159)" opacity="0.1"/>
    <path id="Path_347" data-name="Path 347" d="M910,805.673a9.917,9.917,0,0,1,7.977,3.362C921.618,812.956,910,805.673,910,805.673Z" transform="translate(-456.847 -406.491)" opacity="0.1"/>
    <g id="Group_173" data-name="Group 173" transform="translate(416.718 137.279)" opacity="0.1">
      <path id="Path_348" data-name="Path 348" d="M887.969,310.391a7.628,7.628,0,0,0-1.841,1.638,18.933,18.933,0,0,0-.649,2.029c-.284.654-1.111,1.2-1.689.781-.132-4.564-2.379-8.849-5.142-12.5a12.973,12.973,0,0,0-2.784-2.886,5.451,5.451,0,0,0-3.788-1.075c-1.521.208-2.86,1.242-4.4,1.374-2.029.167-3.849-1.237-5.863-1.3a5.721,5.721,0,0,0-4.3,2,11.747,11.747,0,0,0-2.307,4.275,25.075,25.075,0,0,0-1.288,7.384c-.031,1.415-.162,3.18-1.471,3.707a7.053,7.053,0,0,1,0,1.131c1.324-.507,1.455-2.3,1.486-3.717a25.075,25.075,0,0,1,1.288-7.384,11.75,11.75,0,0,1,2.307-4.275,5.741,5.741,0,0,1,4.3-2c2.028.071,3.854,1.476,5.863,1.3,1.521-.127,2.87-1.161,4.4-1.369a5.451,5.451,0,0,1,3.788,1.07,13,13,0,0,1,2.784,2.891c2.764,3.651,5.01,7.921,5.142,12.5.578.416,1.4-.132,1.689-.781a19.669,19.669,0,0,1,.649-2.028,7.527,7.527,0,0,1,1.841-1.638c1.582-1.364,1.978-3.661,1.917-5.746v-.193A6.67,6.67,0,0,1,887.969,310.391Z" transform="translate(-845.201 -293.742)"/>
      <path id="Path_349" data-name="Path 349" d="M843.482,313.953c-1.161-1.283-2.754-2.145-3.824-3.5a7.36,7.36,0,0,1-1.476-4.148,7.816,7.816,0,0,0,1.476,5.269c1.07,1.359,2.662,2.216,3.824,3.5a7.607,7.607,0,0,1,1.917,4.524A7.606,7.606,0,0,0,843.482,313.953Z" transform="translate(-838.155 -297.658)"/>
      <path id="Path_350" data-name="Path 350" d="M927.029,290.239c-.3,1.242-.832,2.424-1.075,3.677a11.741,11.741,0,0,0-.157,2.566,9.84,9.84,0,0,1,.157-1.445c.244-1.253.776-2.434,1.075-3.677a6.372,6.372,0,0,0,.167-2.1A7.068,7.068,0,0,1,927.029,290.239Z" transform="translate(-881.344 -289.26)"/>
    </g>
    <ellipse id="Ellipse_57" data-name="Ellipse 57" cx="49.415" cy="7.937" rx="49.415" ry="7.937" transform="translate(17.648 409.549)" fill="#278bed" opacity="0.1"/>
    <rect id="Rectangle_186" data-name="Rectangle 186" width="3.18" height="71.592" transform="translate(65.476 265.442)" fill="#535461"/>
    <path id="Path_351" data-name="Path 351" d="M149.285,678.008l-.2,3.225L148.8,685.8l-.117,1.9-.284,4.564-.122,1.9L148,698.719l-3.21,51.763a8.763,8.763,0,0,1-8.748,8.226H119.374a8.758,8.758,0,0,1-8.748-8.261l-3.21-51.763-.279-4.564-.117-1.9-.289-4.564-.117-1.9-.279-4.564-.2-3.225a4.564,4.564,0,0,1,4.534-4.823h34.089a4.564,4.564,0,0,1,4.529,4.858Z" transform="translate(-60.643 -341.188)" fill="#3f3d56"/>
    <path id="Path_352" data-name="Path 352" d="M133.331,670.52l-.284,4.554H90.864l-.284-4.554Z" transform="translate(-44.892 -330.479)" fill="#9d9cb5"/>
    <path id="Path_353" data-name="Path 353" d="M133.32,683.24l-.279,4.554H91.654l-.284-4.554Z" transform="translate(-45.282 -336.748)" fill="#9d9cb5"/>
    <path id="Path_354" data-name="Path 354" d="M133.309,695.97l-.279,4.549H92.444l-.284-4.549Z" transform="translate(-45.671 -343.023)" fill="#9d9cb5"/>
    <path id="Path_355" data-name="Path 355" d="M57.295,581.149c18.52,13.4,26.234,34.353,26.234,34.353s-22.314-.766-40.839-14.164S16.44,567,16.44,567,38.754,567.75,57.295,581.149Z" transform="translate(-16.44 -288.87)" fill="#278bed"/>
    <path id="Path_356" data-name="Path 356" d="M16.44,567S39.6,579.856,47.03,590.5s36.478,25.012,36.478,25.012" transform="translate(-16.44 -288.87)" fill="none" stroke="#535461" stroke-miterlimit="10" stroke-width="2"/>
    <path id="Path_357" data-name="Path 357" d="M98.928,534.188c10.082,7.287,14.281,18.693,14.281,18.693s-12.171-.416-22.228-7.7S76.7,526.48,76.7,526.48,88.851,526.9,98.928,534.188Z" transform="translate(-46.14 -268.899)" fill="#278bed"/>
    <path id="Path_358" data-name="Path 358" d="M76.7,526.48s12.607,7,16.654,12.79,19.854,13.612,19.854,13.612" transform="translate(-46.14 -268.899)" fill="none" stroke="#535461" stroke-miterlimit="10" stroke-width="2"/>
    <path id="Path_359" data-name="Path 359" d="M163.937,561.135c-11.578,12.724-14.027,29.353-14.027,29.353s16.325-4.006,27.892-16.735S191.83,544.4,191.83,544.4,175.515,548.411,163.937,561.135Z" transform="translate(-82.223 -277.731)" fill="#278bed"/>
    <path id="Path_360" data-name="Path 360" d="M191.84,544.41s-15.082,13.043-18.916,22.03-23.014,24.053-23.014,24.053" transform="translate(-82.223 -277.736)" fill="none" stroke="#535461" stroke-miterlimit="10" stroke-width="2"/>
  </g>
</svg>
