<svg id="user-heart-health" xmlns="http://www.w3.org/2000/svg" width="24" height="24" viewBox="0 0 24 24">
  <path id="Path_617" data-name="Path 617" d="M4,19H4a3.983,3.983,0,0,1,3.967-4h2.344" fill="none" stroke="#fff" stroke-linecap="round" stroke-linejoin="round" stroke-width="1.5"/>
  <path id="Health-Icon" d="M13,16.49a4.267,4.267,0,0,0,1.127,2.688,7.219,7.219,0,0,0,1.914,1.572,1.963,1.963,0,0,0,2.012-.059A7.836,7.836,0,0,0,19.8,19.164,4.4,4.4,0,0,0,21,16.49a2.339,2.339,0,0,0-.623-1.608,2.075,2.075,0,0,0-1.512-.672,2.118,2.118,0,0,0-1.851.854l-.014.02-.014-.02a2.032,2.032,0,0,0-1.708-.854A2.241,2.241,0,0,0,13,16.49Z" fill="none" stroke="#fff" stroke-linecap="round" stroke-linejoin="round" stroke-width="1.5" fill-rule="evenodd"/>
  <circle id="Ellipse_84" data-name="Ellipse 84" cx="4.25" cy="4.25" r="4.25" transform="translate(7.75 3)" fill="none" stroke="#fff" stroke-linecap="round" stroke-linejoin="round" stroke-width="1.5"/>
  <rect id="Rectangle_242" data-name="Rectangle 242" width="24" height="24" fill="none"/>
</svg>
