<svg id="Reception_Hotel_Concierge" data-name="Reception, Hotel, Concierge" xmlns="http://www.w3.org/2000/svg" width="24" height="24" viewBox="0 0 24 24">
  <g id="Group_3674" data-name="Group 3674">
    <path id="Path_2952" data-name="Path 2952" d="M10.068,3.593a2.023,2.023,0,1,1-2.861,0,2.023,2.023,0,0,1,2.861,0" fill="none" stroke="#081c2f" stroke-linecap="round" stroke-linejoin="round" stroke-width="1.5"/>
    <path id="Path_2953" data-name="Path 2953" d="M19,21H5a1.935,1.935,0,0,1-2-1.864V17.863A1.935,1.935,0,0,1,5,16H19a1.935,1.935,0,0,1,2,1.864v1.273A1.935,1.935,0,0,1,19,21Z" fill="none" stroke="#081c2f" stroke-linecap="round" stroke-linejoin="round" stroke-width="1.5"/>
    <path id="Path_2954" data-name="Path 2954" d="M8,9.4H7.5A2.5,2.5,0,0,0,5,11.9V13" fill="none" stroke="#081c2f" stroke-linecap="round" stroke-linejoin="round" stroke-width="1.5"/>
    <path id="Path_2955" data-name="Path 2955" d="M15.5,16V13" fill="none" stroke="#081c2f" stroke-linecap="round" stroke-linejoin="round" stroke-width="1.5"/>
    <path id="Path_2956" data-name="Path 2956" d="M12,9h7v4H12Z" fill="none" stroke="#081c2f" stroke-linecap="round" stroke-linejoin="round" stroke-width="1.5"/>
  </g>
  <path id="Path_2957" data-name="Path 2957" d="M0,0H24V24H0Z" fill="none"/>
</svg>
