<svg id="eye.5" xmlns="http://www.w3.org/2000/svg" width="24" height="24" viewBox="0 0 24 24">
  <g id="Group_3517" data-name="Group 3517">
    <path id="Path_2890" data-name="Path 2890" d="M14.122,9.88a3,3,0,1,1-4.245,0,3,3,0,0,1,4.245,0" fill="none" stroke="#134576" stroke-linecap="round" stroke-linejoin="round" stroke-width="1.5"/>
    <path id="Path_2891" data-name="Path 2891" d="M3,12a4.346,4.346,0,0,1,.446-1.912h0A9.453,9.453,0,0,1,12,5a9.453,9.453,0,0,1,8.554,5.088h0a4.321,4.321,0,0,1,0,3.824h0A9.453,9.453,0,0,1,12,19a9.453,9.453,0,0,1-8.554-5.088h0A4.346,4.346,0,0,1,3,12Z" fill="none" stroke="#134576" stroke-linecap="round" stroke-linejoin="round" stroke-width="1.5"/>
  </g>
  <path id="Path_2892" data-name="Path 2892" d="M0,0H24V24H0Z" fill="none"/>
</svg>
